{
  "accessors": [
    {
      "bufferView": 2,
      "componentType": 5126,
      "count": 2072,
      "max": [
        16.42267608642578,
        16.588722229003906,
        39.00822830200195
      ],
      "min": [
        -17.744125366210938,
        -17.331880569458008,
        -0.9065420031547546
      ],
      "type": "VEC3"
    },
    {
      "bufferView": 2,
      "byteOffset": 24864,
      "componentType": 5126,
      "count": 2072,
      "max": [
        0.9998538494110107,
        0.9998538494110107,
        0.9999994039535522
      ],
      "min": [
        -0.9998538494110107,
        -0.9998538494110107,
        -0.9983288049697876
      ],
      "type": "VEC3"
    },
    {
      "bufferView": 3,
      "componentType": 5126,
      "count": 2072,
      "max": [
        1.0,
        1.0,
        0.6552164554595947,
        1.0
      ],
      "min": [
        -0.9999944567680359,
        -1.0,
        -0.7160519361495972,
        -1.0
      ],
      "type": "VEC4"
    },
    {
      "bufferView": 1,
      "componentType": 5126,
      "count": 2072,
      "max": [
        0.9974719882011414,
        9.16489315032959
      ],
      "min": [
        0.00522099994122982,
        -0.0
      ],
      "type": "VEC2"
    },
    {
      "bufferView": 0,
      "componentType": 5125,
      "count": 8304,
      "type": "SCALAR"
    }
  ],
  "asset": {
    "extras": {
      "author": "n-malmberg (https://sketchfab.com/n-malmberg)",
      "license": "CC-BY-4.0 (http://creativecommons.org/licenses/by/4.0/)",
      "source": "https://sketchfab.com/3d-models/pinetree-e7c6a19178074c45b2f0107e674d252d",
      "title": "pinetree"
    },
    "generator": "Sketchfab-14.20.0",
    "version": "2.0"
  },
  "bufferViews": [
    {
      "buffer": 0,
      "byteLength": 33216,
      "name": "floatBufferViews",
      "target": 34963
    },
    {
      "buffer": 0,
      "byteLength": 16576,
      "byteOffset": 33216,
      "byteStride": 8,
      "name": "floatBufferViews",
      "target": 34962
    },
    {
      "buffer": 0,
      "byteLength": 49728,
      "byteOffset": 49792,
      "byteStride": 12,
      "name": "floatBufferViews",
      "target": 34962
    },
    {
      "buffer": 0,
      "byteLength": 33152,
      "byteOffset": 99520,
      "byteStride": 16,
      "name": "floatBufferViews",
      "target": 34962
    }
  ],
  "buffers": [
    {
      "byteLength": 132672,
      "uri": "scene.bin"
    }
  ],
  "images": [
    {
      "uri": "textures/uv-checker_baseColor.png"
    },
    {
      "uri": "textures/uv-checker_normal.png"
    }
  ],
  "materials": [
    {
      "alphaMode": "BLEND",
      "doubleSided": true,
      "name": "uv-checker",
      "normalTexture": {
        "index": 1
      },
      "pbrMetallicRoughness": {
        "baseColorTexture": {
          "index": 0
        },
        "metallicFactor": 0.0,
        "roughnessFactor": 0.6
      }
    }
  ],
  "meshes": [
    {
      "name": "Object_0",
      "primitives": [
        {
          "attributes": {
            "NORMAL": 1,
            "POSITION": 0,
            "TANGENT": 2,
            "TEXCOORD_0": 3
          },
          "indices": 4,
          "material": 0,
          "mode": 4
        }
      ]
    }
  ],
  "nodes": [
    {
      "children": [
        1
      ],
      "matrix": [
        1.0,
        0.0,
        0.0,
        0.0,
        0.0,
        2.220446049250313e-16,
        -1.0,
        0.0,
        0.0,
        1.0,
        2.220446049250313e-16,
        0.0,
        0.0,
        0.0,
        0.0,
        1.0
      ],
      "name": "Sketchfab_model"
    },
    {
      "children": [
        2
      ],
      "name": "4d6d035e326f4324aa0842bc63ae6550.obj.cleaner.materialmerger.gles"
    },
    {
      "mesh": 0,
      "name": "Object_2"
    }
  ],
  "samplers": [
    {
      "magFilter": 9729,
      "minFilter": 9987,
      "wrapS": 10497,
      "wrapT": 10497
    }
  ],
  "scene": 0,
  "scenes": [
    {
      "name": "Sketchfab_Scene",
      "nodes": [
        0
      ]
    }
  ],
  "textures": [
    {
      "sampler": 0,
      "source": 0
    },
    {
      "sampler": 0,
      "source": 1
    }
  ]
}
